<?xml version="1.0" encoding="UTF-8"?>
<svg version="1.1" xmlns="http://www.w3.org/2000/svg" width="96" height="96">
<path d="M0 0 C31.68 0 63.36 0 96 0 C96 31.68 96 63.36 96 96 C64.32 96 32.64 96 0 96 C0 64.32 0 32.64 0 0 Z " fill="#3B3B3B" transform="translate(0,0)"/>
<path d="M0 0 C7.26 0 14.52 0 22 0 C22 0.33 22 0.66 22 1 C19.69 1 17.38 1 15 1 C15.33 8.26 15.66 15.52 16 23 C18.2275 20.7415625 18.2275 20.7415625 20.5 18.4375 C24.29920148 14.62752065 28.17103446 11.00820101 32.30859375 7.5703125 C34.14503742 5.86534632 35.55479379 4.04185098 37 2 C34.36 1.67 31.72 1.34 29 1 C29 0.67 29 0.34 29 0 C34.61 0 40.22 0 46 0 C46 0.33 46 0.66 46 1 C44.79150391 1.23589844 44.79150391 1.23589844 43.55859375 1.4765625 C38.3505514 3.70613057 35.00217487 7.37890181 31.0625 11.375 C30.27037109 12.14328125 29.47824219 12.9115625 28.66210938 13.703125 C27.91896484 14.44820312 27.17582031 15.19328125 26.41015625 15.9609375 C25.73090088 16.63946777 25.05164551 17.31799805 24.35180664 18.01708984 C22.77298069 19.88812847 22.77298069 19.88812847 23.16381836 22.07666016 C24.46352938 25.06618525 26.47435891 27.47773071 28.5 30 C29.41736403 31.1661184 30.33401625 32.33279708 31.25 33.5 C31.71277344 34.08652344 32.17554688 34.67304687 32.65234375 35.27734375 C34.64246368 37.82123619 36.57097974 40.40960137 38.5 43 C39.2321875 43.97324219 39.964375 44.94648437 40.71875 45.94921875 C42.31797239 48.08790485 43.89915381 50.23449712 45.46875 52.39453125 C51.84965419 61.07601676 58.91828151 69.74026948 70 72 C74.66232385 72.50907536 79.31455205 72.80916013 84 73 C84 76.96 84 80.92 84 85 C52.32 85 20.64 85 -12 85 C-12 50.47368421 -12 50.47368421 -6.625 44.25 C-1.61766765 39.95800084 0.10932151 39 7 39 C6.505 20.685 6.505 20.685 6 2 C3.03 1.505 3.03 1.505 0 1 C0 0.67 0 0.34 0 0 Z " fill="#484848" transform="translate(12,11)"/>
<path d="M0 0 C5 5 5 5 7.3125 7.4375 C17.35291955 17.01092329 28.0569934 20.75954698 41.8125 21.5625 C42.50537109 21.60568359 43.19824219 21.64886719 43.91210938 21.69335938 C45.60788686 21.79861453 47.30392052 21.89972863 49 22 C49 25.63 49 29.26 49 33 C17.32 33 -14.36 33 -47 33 C-47 24.42 -47 15.84 -47 7 C-46.34 8.32 -45.68 9.64 -45 11 C-41.72481872 16.61459648 -38.22775617 19.92408128 -32 22 C-24.12152305 22.82931336 -18.24836027 20.3611525 -12.0546875 15.4609375 C-7.25728684 10.92169293 -3.63094197 5.48504 0 0 Z " fill="#3E3E3E" transform="translate(47,63)"/>
<path d="M0 0 C7.26 0 14.52 0 22 0 C22 0.33 22 0.66 22 1 C19.69 1 17.38 1 15 1 C15.33 8.26 15.66 15.52 16 23 C18.2275 20.7415625 18.2275 20.7415625 20.5 18.4375 C24.29920148 14.62752065 28.17103446 11.00820101 32.30859375 7.5703125 C34.14503742 5.86534632 35.55479379 4.04185098 37 2 C34.36 1.67 31.72 1.34 29 1 C29 0.67 29 0.34 29 0 C34.61 0 40.22 0 46 0 C46 0.33 46 0.66 46 1 C44.79150391 1.23589844 44.79150391 1.23589844 43.55859375 1.4765625 C38.3505514 3.70613057 35.00217487 7.37890181 31.0625 11.375 C30.27037109 12.14328125 29.47824219 12.9115625 28.66210938 13.703125 C27.91896484 14.44820312 27.17582031 15.19328125 26.41015625 15.9609375 C25.73090088 16.63946777 25.05164551 17.31799805 24.35180664 18.01708984 C22.77298069 19.88812847 22.77298069 19.88812847 23.16381836 22.07666016 C24.46352938 25.06618525 26.47435891 27.47773071 28.5 30 C29.41736403 31.1661184 30.33401625 32.33279708 31.25 33.5 C31.71277344 34.08652344 32.17554688 34.67304687 32.65234375 35.27734375 C34.64246368 37.82123619 36.57097974 40.40960137 38.5 43 C39.2321875 43.97324219 39.964375 44.94648437 40.71875 45.94921875 C42.31797239 48.08790485 43.89915381 50.23449712 45.46875 52.39453125 C51.84965419 61.07601676 58.91828151 69.74026948 70 72 C74.66232385 72.50907536 79.31455205 72.80916013 84 73 C84 73.33 84 73.66 84 74 C67.71567971 74.60065116 55.23509576 72.19766935 42.45947266 61.36572266 C40.11920346 59.17578189 38.27899258 56.69637143 36.375 54.125 C35.51842201 52.98195112 34.66027792 51.8400746 33.80078125 50.69921875 C33.3517041 50.10157715 32.90262695 49.50393555 32.43994141 48.88818359 C29.37816967 44.87330692 26.18973652 40.95799824 23.02294922 37.02587891 C21.67805583 35.35366651 20.33798607 33.67774069 19 32 C18.39027344 31.23816406 17.78054687 30.47632812 17.15234375 29.69140625 C16 28 16 28 16 26 C15.34 26 14.68 26 14 26 C14.0721875 26.97839844 14.144375 27.95679687 14.21875 28.96484375 C14.7160631 35.98939129 15.12361588 42.9538946 15 50 C18.465 50.495 18.465 50.495 22 51 C22 51.33 22 51.66 22 52 C14.74 52 7.48 52 0 52 C0 51.67 0 51.34 0 51 C2.97 50.505 2.97 50.505 6 50 C6.33 46.7 6.66 43.4 7 40 C1.93942063 41.58615174 -2.57595309 43.003065 -7 46 C-5.80037169 42.40111506 -4.24352525 41.67499152 -1.08203125 39.76953125 C1 39 1 39 7 39 C6.67 26.79 6.34 14.58 6 2 C3.03 1.505 3.03 1.505 0 1 C0 0.67 0 0.34 0 0 Z " fill="#F3F3F3" transform="translate(12,11)"/>
<path d="M0 0 C7.26 0 14.52 0 22 0 C22 0.33 22 0.66 22 1 C19.36 1 16.72 1 14 1 C14.33 17.17 14.66 33.34 15 50 C18.465 50.495 18.465 50.495 22 51 C22 51.33 22 51.66 22 52 C14.74 52 7.48 52 0 52 C0 51.67 0 51.34 0 51 C2.97 50.505 2.97 50.505 6 50 C6.33 46.7 6.66 43.4 7 40 C1.93942063 41.58615174 -2.57595309 43.003065 -7 46 C-5.80037169 42.40111506 -4.24352525 41.67499152 -1.08203125 39.76953125 C1 39 1 39 7 39 C6.67 26.79 6.34 14.58 6 2 C3.03 1.505 3.03 1.505 0 1 C0 0.67 0 0.34 0 0 Z " fill="#F9F9F9" transform="translate(12,11)"/>
<path d="M0 0 C0.66 0 1.32 0 2 0 C3.40053089 1.67520398 4.71897712 3.41923092 6 5.1875 C6.79809284 6.28616464 7.59762726 7.38378322 8.3984375 8.48046875 C9.02830566 9.34357666 9.02830566 9.34357666 9.67089844 10.22412109 C11.02556336 12.03415648 12.4274 13.79502415 13.8515625 15.55078125 C14.31433594 16.12739502 14.77710938 16.70400879 15.25390625 17.2980957 C16.15584444 18.41764897 17.06711317 19.52975989 17.98828125 20.63354492 C21.01704728 24.43443132 21.01704728 24.43443132 20.93359375 27.203125 C19.48330096 29.99448351 17.29106617 31.88516969 15 34 C14.62875 33.01 14.2575 32.02 13.875 31 C11.16284855 24.70576173 7.33705553 18.98214378 1 16 C1 18.64 1 21.28 1 24 C0.67 24 0.34 24 0 24 C0 16.08 0 8.16 0 0 Z " fill="#595959" transform="translate(26,37)"/>
<path d="M0 0 C5.61 0 11.22 0 17 0 C17 0.33 17 0.66 17 1 C16.19046875 1.1546875 15.3809375 1.309375 14.546875 1.46875 C9.35748499 3.7091034 6.11939773 7.45803907 2.25 11.5 C1.48300781 12.28503906 0.71601562 13.07007813 -0.07421875 13.87890625 C-1.48996985 15.3294913 -2.90157082 16.78414687 -4.30761719 18.24414062 C-7.04937655 21.08873574 -9.83452521 23.62589391 -13 26 C-13.66 26 -14.32 26 -15 26 C-15 17.75 -15 9.5 -15 1 C-14.67 1 -14.34 1 -14 1 C-13.67 8.26 -13.34 15.52 -13 23 C-11.515 21.494375 -10.03 19.98875 -8.5 18.4375 C-4.70079852 14.62752065 -0.82896554 11.00820101 3.30859375 7.5703125 C5.14503742 5.86534632 6.55479379 4.04185098 8 2 C5.36 1.67 2.72 1.34 0 1 C0 0.67 0 0.34 0 0 Z " fill="#B4B4B4" transform="translate(41,11)"/>
<path d="M0 0 C5.61 0 11.22 0 17 0 C17 0.33 17 0.66 17 1 C16.12085937 1.22429688 15.24171875 1.44859375 14.3359375 1.6796875 C10.44431362 3.21993208 8.49199603 5.10303121 5.625 8.125 C4.75101563 9.03507812 3.87703125 9.94515625 2.9765625 10.8828125 C2.32429688 11.58148438 1.67203125 12.28015625 1 13 C0.34 12.67 -0.32 12.34 -1 12 C-0.02546875 11.04287109 -0.02546875 11.04287109 0.96875 10.06640625 C1.8040625 9.24011719 2.639375 8.41382813 3.5 7.5625 C4.3353125 6.73878906 5.170625 5.91507813 6.03125 5.06640625 C8.11496531 3.35501902 8.11496531 3.35501902 8 2 C5.36 1.67 2.72 1.34 0 1 C0 0.67 0 0.34 0 0 Z " fill="#F1F1F1" transform="translate(41,11)"/>
</svg>
