<?xml version="1.0" encoding="iso-8859-1"?>
<!-- Uploaded to: SVG Repo, www.svgrepo.com, Generator: SVG Repo Mixer Tools -->
<svg fill="#000000" height="800px" width="800px" version="1.1" id="Capa_1" xmlns="http://www.w3.org/2000/svg" xmlns:xlink="http://www.w3.org/1999/xlink" 
	 viewBox="0 0 340 340" xml:space="preserve">
<path id="XMLID_1277_" d="M300,30V0h-20H60H40v30h20v280H40v30h20h220h20v-30h-20V30H300z M90,68.313l52.959,35.306L90,138.925
	V68.313z M170,121.646L242.53,170L170,218.354L97.47,170L170,121.646z M90,201.075l52.959,35.306L90,271.687V201.075z M250,310H90
	v-2.258l80-53.333l80,53.333V310z M250,271.687l-52.959-35.306L250,201.075V271.687z M250,138.925l-52.959-35.306L250,68.313
	V138.925z M250,32.258l-80,53.333L90,32.258V30h160V32.258z"/>
</svg>